<svg height="496pt" viewBox="-15 0 495 496" width="496pt" xmlns="http://www.w3.org/2000/svg"><path d="m288.5 268.28125 5.71875-5.839844c9.113281-9.3125 21.289062-14.441406 34.28125-14.441406 26.472656 0 48 21.527344 48 48h16v-40c0-54.945312-30.945312-104.472656-79.574219-128.777344 9.742188-13.253906 15.574219-29.550781 15.574219-47.222656 0-44.113281-35.886719-80-80-80s-80 35.886719-80 80c0 17.6875 5.839844 34 15.601562 47.265625-48.570312 24.308594-79.601562 74-79.601562 128.734375v40h16c0-26.472656 21.527344-48 48-48 12.992188 0 25.167969 5.128906 34.28125 14.441406l5.71875 5.839844 5.71875-5.839844c7.21875-7.371094 16.351562-12.066406 26.28125-13.730468v143.289062c0 8.824219-7.175781 16-16 16s-16-7.175781-16-16v-16h-16v16c0 17.648438 14.351562 32 32 32s32-14.351562 32-32v-143.289062c9.929688 1.664062 19.070312 6.359374 26.28125 13.730468zm87.910156-14.5625c-11.734375-13.285156-28.839844-21.71875-47.910156-21.71875-11.625 0-22.734375 3.121094-32.480469 8.894531-1.75-29.4375-8.632812-58.6875-20.105469-85.839843 9.570313-3.511719 18.265626-8.773438 25.738282-15.429688 44.878906 20.496094 73.886718 64.65625 74.757812 114.09375zm-127.910156-237.71875c35.289062 0 64 28.710938 64 64s-28.710938 64-64 64-64-28.710938-64-64 28.710938-64 64-64zm-127.910156 237.71875c.878906-49.253906 29.925781-93.613281 74.734375-114.117188 7.488281 6.6875 16.222656 11.964844 25.824219 15.476563-3.695313 8.738281-7.074219 17.617187-9.769532 26.625l15.328125 4.59375c2.761719-9.234375 6.25-18.335937 10.121094-27.25 3.824219.570313 7.695313.953125 11.671875.953125 3.992188 0 7.886719-.390625 11.726562-.960938 11.128907 25.625 17.859376 53.304688 19.699219 81.199219-9.480469-5.367187-20.226562-8.238281-31.425781-8.238281-11.207031 0-21.953125 2.878906-31.441406 8.257812.839844-12.953124 2.671875-25.832031 5.5625-38.464843l-15.59375-3.578125c-3.207032 14.007812-5.230469 28.304687-6.070313 42.671875-9.738281-5.765625-20.839843-8.886719-32.457031-8.886719-19.070312 0-36.183594 8.433594-47.910156 21.71875zm0 0"/><path d="m256.5 104h-16c-4.414062 0-8-3.585938-8-8h-16c0 13.230469 10.769531 24 24 24v8h16v-8c13.230469 0 24-10.769531 24-24s-10.769531-24-24-24h-16c-4.414062 0-8-3.585938-8-8s3.585938-8 8-8h16c4.414062 0 8 3.585938 8 8h16c0-13.230469-10.769531-24-24-24v-8h-16v8c-13.230469 0-24 10.769531-24 24s10.769531 24 24 24h16c4.414062 0 8 3.585938 8 8s-3.585938 8-8 8zm0 0"/><path d="m.5 388.6875v107.3125h144v-107.3125l-72-72zm88 91.3125h-32v-56h32zm40 0h-24v-72h-64v72h-24v-84.6875l56-56 56 56zm0 0"/><path d="m454.253906 417.113281-20.3125-47.402343c-2.53125-5.894532-8.296875-9.710938-14.714844-9.710938h-85.453124c-6.417969 0-12.183594 3.816406-14.707032 9.703125l-20.320312 47.410156c-5.972656 2.320313-10.246094 8.09375-10.246094 14.886719v16c0 8.824219 7.175781 16 16 16v8c0 13.230469 10.769531 24 24 24s24-10.769531 24-24v-8h48v8c0 13.230469 10.769531 24 24 24s24-10.769531 24-24v-8c8.824219 0 16-7.175781 16-16v-16c0-6.792969-4.273438-12.566406-10.246094-14.886719zm-120.480468-41.113281h85.453124l17.144532 40h-119.742188zm2.726562 96c0 4.414062-3.585938 8-8 8s-8-3.585938-8-8v-8h16zm96 0c0 4.414062-3.585938 8-8 8s-8-3.585938-8-8v-8h16zm-128-24v-16h144l.015625 16zm0 0"/></svg>